<?xml version="1.0" encoding="utf-8"?>
<!-- Generator: Adobe Illustrator 16.0.0, SVG Export Plug-In . SVG Version: 6.00 Build 0)  -->
<svg version="1.2" baseProfile="tiny" id="Layer_1" xmlns="http://www.w3.org/2000/svg" xmlns:xlink="http://www.w3.org/1999/xlink"
	 x="0px" y="0px" width="43px" height="41.25px" viewBox="0 0 43 41.25" xml:space="preserve">
<g>
	<path fill="#BCBEC0" d="M40.86,1.625c-3.621,0-6.943,1.766-9.011,4.727c-2.512-1.307-5.322-2.003-8.167-2.003h-4.037
		c-2.844,0-5.655,0.696-8.168,2.003c-2.066-2.96-5.389-4.727-9.011-4.727H1.917v20.451c0,0.361,0.014,0.718,0.036,1.071
		c0.558,9.339,8.329,16.656,17.692,16.656h4.037c9.363,0,17.135-7.316,17.692-16.656c0.021-0.355,0.035-0.711,0.035-1.071V1.625
		H40.86z M3.017,15.938V2.74c3.008,0.164,5.75,1.675,7.51,4.135C10.461,6.915,10.402,6.96,10.337,7
		c-0.293,0.182-0.58,0.372-0.861,0.569C9.374,7.641,9.27,7.709,9.169,7.783c-0.374,0.274-0.737,0.559-1.086,0.86
		c-0.034,0.029-0.064,0.061-0.098,0.09C7.674,9.006,7.374,9.289,7.083,9.581C6.985,9.679,6.891,9.782,6.795,9.882
		c-0.225,0.237-0.443,0.479-0.654,0.728c-0.093,0.11-0.187,0.22-0.277,0.332c-0.228,0.282-0.445,0.57-0.654,0.865
		c-0.054,0.076-0.112,0.15-0.166,0.227c-0.257,0.374-0.499,0.756-0.726,1.149c-0.053,0.091-0.1,0.185-0.151,0.277
		c-0.17,0.305-0.332,0.614-0.483,0.929c-0.064,0.133-0.126,0.268-0.187,0.402c-0.133,0.294-0.257,0.592-0.374,0.893
		C3.09,15.769,3.049,15.851,3.017,15.938z M40.277,23.082c-0.522,8.76-7.812,15.622-16.595,15.622h-1.47V26.788h1.274
		c1.451,0,2.631-1.18,2.631-2.631s-1.18-2.631-2.631-2.631H19.84c-1.45,0-2.63,1.181-2.63,2.631s1.18,2.631,2.63,2.631h1.274v11.916
		h-1.469c-8.783,0-16.072-6.862-16.595-15.623c-0.021-0.333-0.034-0.667-0.034-1.005c0-6.032,3.28-11.603,8.561-14.54
		c2.457-1.366,5.247-2.088,8.068-2.088h4.037c2.821,0,5.611,0.722,8.067,2.088c5.28,2.937,8.561,8.508,8.561,14.54
		C40.311,22.415,40.298,22.75,40.277,23.082z M19.84,25.689c-0.844,0-1.531-0.688-1.531-1.532c0-0.845,0.687-1.532,1.531-1.532
		h3.646c0.845,0,1.532,0.687,1.532,1.532c0,0.845-0.687,1.532-1.532,1.532H19.84z M39.833,14.796
		c-0.062-0.139-0.125-0.277-0.191-0.414c-0.148-0.306-0.306-0.608-0.472-0.905c-0.056-0.1-0.106-0.202-0.164-0.301
		c-0.226-0.388-0.465-0.768-0.72-1.138c-0.059-0.085-0.122-0.166-0.182-0.249c-0.204-0.286-0.415-0.567-0.636-0.841
		c-0.095-0.117-0.192-0.232-0.291-0.348c-0.206-0.242-0.418-0.478-0.638-0.71c-0.1-0.105-0.199-0.212-0.301-0.315
		c-0.282-0.284-0.573-0.558-0.875-0.823c-0.042-0.037-0.081-0.077-0.124-0.113c-0.346-0.298-0.707-0.582-1.078-0.854
		c-0.105-0.078-0.215-0.149-0.322-0.225c-0.276-0.193-0.557-0.38-0.846-0.559c-0.066-0.041-0.127-0.088-0.194-0.128
		c1.759-2.46,4.502-3.971,7.509-4.135v13.198c-0.032-0.088-0.074-0.172-0.108-0.26C40.087,15.38,39.964,15.086,39.833,14.796z"/>
	<path fill="#BCBEC0" d="M9.45,16.336c-1.674,0-3.035,1.362-3.035,3.035s1.361,3.034,3.035,3.034c1.673,0,3.033-1.361,3.033-3.034
		S11.123,16.336,9.45,16.336z M9.45,21.305c-1.067,0-1.936-0.868-1.936-1.935c0-1.067,0.868-1.936,1.936-1.936
		c1.066,0,1.935,0.868,1.935,1.936C11.385,20.437,10.517,21.305,9.45,21.305z"/>
	<path fill="#BCBEC0" d="M30.845,19.371c0,1.673,1.36,3.034,3.033,3.034s3.034-1.361,3.034-3.034s-1.361-3.035-3.034-3.035
		S30.845,17.698,30.845,19.371z M35.812,19.371c0,1.066-0.868,1.935-1.935,1.935c-1.066,0-1.935-0.868-1.935-1.935
		c0-1.067,0.868-1.936,1.935-1.936C34.945,17.435,35.812,18.303,35.812,19.371z"/>
</g>
</svg>
