<?xml version="1.0" encoding="utf-8"?>
<!-- Generator: Adobe Illustrator 16.0.0, SVG Export Plug-In . SVG Version: 6.00 Build 0)  -->
<svg version="1.2" baseProfile="tiny" id="Layer_1" xmlns="http://www.w3.org/2000/svg" xmlns:xlink="http://www.w3.org/1999/xlink"
	 x="0px" y="0px" width="47.583px" height="43.584px" viewBox="0 0 47.583 43.584" xml:space="preserve">
<g>
	<path fill="#27AAE1" d="M39.131,1.084c-2.219,0-4.287,1.022-5.655,2.745c-2.776-2.146-6.202-3.333-9.722-3.333
		S16.81,1.683,14.033,3.83c-1.368-1.722-3.436-2.746-5.655-2.746c-3.988,0-7.232,3.245-7.232,7.232v7.598
		c0,3.803,2.954,6.923,6.686,7.204v3.336c0,8.781,7.143,15.923,15.923,15.923c8.781,0,15.923-7.143,15.923-15.923v-3.336
		c3.732-0.281,6.685-3.401,6.685-7.204V8.316C46.363,4.329,43.119,1.084,39.131,1.084z M2.238,15.914V8.316
		c0-3.386,2.754-6.14,6.14-6.14c1.886,0,3.652,0.863,4.814,2.331C13.02,4.66,12.868,4.83,12.703,4.988
		c-0.188,0.182-0.379,0.36-0.558,0.55c-0.216,0.231-0.415,0.473-0.616,0.714c-0.166,0.199-0.336,0.393-0.492,0.6
		c-0.19,0.251-0.36,0.515-0.535,0.776c-0.141,0.212-0.288,0.42-0.418,0.638C9.921,8.539,9.78,8.822,9.633,9.104
		C9.519,9.326,9.395,9.542,9.291,9.77c-0.135,0.293-0.247,0.598-0.364,0.9c-0.088,0.227-0.187,0.449-0.264,0.68
		C8.555,11.67,8.474,12,8.387,12.329c-0.059,0.222-0.131,0.439-0.181,0.664c-0.081,0.369-0.131,0.746-0.186,1.122
		c-0.028,0.192-0.071,0.379-0.092,0.572c-0.062,0.572-0.096,1.15-0.096,1.732v5.611C4.701,21.752,2.238,19.116,2.238,15.914z
		 M21.195,25.714c-1.029,0-1.866-0.838-1.866-1.867c0-1.027,0.836-1.865,1.866-1.865h5.119c1.028,0,1.865,0.838,1.865,1.865
		c0,1.029-0.837,1.867-1.865,1.867H21.195z M38.586,26.454c0,7.994-6.361,14.514-14.285,14.804V26.805h2.014
		c1.631,0,2.958-1.327,2.958-2.958s-1.327-2.957-2.958-2.957h-5.119c-1.631,0-2.958,1.326-2.958,2.957s1.326,2.958,2.958,2.958
		h2.014v14.453c-7.923-0.29-14.285-6.81-14.285-14.804v-3.309v-6.727c0-4.418,1.952-8.576,5.355-11.406
		c2.656-2.208,6.021-3.425,9.476-3.425s6.82,1.216,9.477,3.425c3.403,2.832,5.355,6.988,5.355,11.406v6.727V26.454z M45.271,15.914
		c0,3.202-2.463,5.838-5.594,6.115v-5.611c0-0.582-0.033-1.16-0.096-1.732c-0.021-0.194-0.063-0.383-0.092-0.576
		c-0.055-0.375-0.105-0.75-0.186-1.117c-0.05-0.229-0.123-0.45-0.184-0.675c-0.086-0.324-0.166-0.65-0.272-0.967
		c-0.079-0.236-0.18-0.463-0.27-0.695c-0.115-0.296-0.225-0.595-0.357-0.884c-0.107-0.233-0.234-0.457-0.353-0.685
		c-0.143-0.275-0.281-0.552-0.44-0.818c-0.134-0.224-0.285-0.438-0.43-0.655c-0.17-0.256-0.337-0.513-0.523-0.76
		c-0.159-0.209-0.333-0.409-0.502-0.612c-0.198-0.237-0.393-0.475-0.605-0.701c-0.182-0.193-0.376-0.376-0.569-0.561
		c-0.162-0.156-0.311-0.323-0.48-0.474c1.163-1.467,2.928-2.33,4.814-2.33c3.386,0,6.14,2.754,6.14,6.14V15.914z"/>
	<path fill="#27AAE1" d="M15.176,13.702c-1.58,0-2.865,1.284-2.865,2.866c0,1.58,1.285,2.866,2.865,2.866
		c1.581,0,2.866-1.286,2.866-2.866C18.042,14.986,16.757,13.702,15.176,13.702z M15.176,18.341c-0.978,0-1.773-0.795-1.773-1.773
		c0-0.979,0.795-1.775,1.773-1.775c0.979,0,1.774,0.796,1.774,1.775C16.95,17.546,16.154,18.341,15.176,18.341z"/>
	<path fill="#27AAE1" d="M32.333,13.702c-1.581,0-2.866,1.284-2.866,2.866c0,1.58,1.286,2.866,2.866,2.866s2.866-1.286,2.866-2.866
		C35.199,14.986,33.914,13.702,32.333,13.702z M32.333,18.341c-0.978,0-1.774-0.795-1.774-1.773c0-0.979,0.796-1.775,1.774-1.775
		s1.774,0.796,1.774,1.775C34.107,17.546,33.312,18.341,32.333,18.341z"/>
</g>
</svg>
