<?xml version="1.0" encoding="utf-8"?>
<!-- Generator: Adobe Illustrator 16.0.0, SVG Export Plug-In . SVG Version: 6.00 Build 0)  -->
<svg version="1.2" baseProfile="tiny" id="Layer_1" xmlns="http://www.w3.org/2000/svg" xmlns:xlink="http://www.w3.org/1999/xlink"
	 x="0px" y="0px" width="47.583px" height="43.584px" viewBox="0 0 47.583 43.584" xml:space="preserve">
<g>
	<path fill="#333333" d="M39.131,1.083c-2.219,0-4.287,1.022-5.655,2.746c-2.776-2.146-6.202-3.334-9.722-3.334
		S16.81,1.683,14.033,3.83c-1.368-1.723-3.436-2.746-5.655-2.746c-3.988,0-7.232,3.244-7.232,7.232v7.598
		c0,3.803,2.954,6.923,6.686,7.204v3.336c0,8.781,7.143,15.923,15.923,15.923c8.781,0,15.923-7.143,15.923-15.923v-3.336
		c3.732-0.281,6.685-3.401,6.685-7.204V8.316C46.363,4.328,43.119,1.083,39.131,1.083z M2.238,15.914V8.316
		c0-3.385,2.754-6.14,6.14-6.14c1.886,0,3.652,0.862,4.814,2.33c-0.172,0.153-0.324,0.323-0.489,0.482
		c-0.188,0.182-0.379,0.36-0.558,0.549c-0.216,0.23-0.415,0.473-0.616,0.714c-0.166,0.199-0.336,0.393-0.492,0.6
		c-0.19,0.251-0.36,0.514-0.535,0.776c-0.141,0.213-0.288,0.419-0.418,0.638C9.921,8.538,9.78,8.821,9.633,9.104
		C9.519,9.325,9.395,9.542,9.291,9.769c-0.135,0.294-0.247,0.599-0.364,0.9c-0.088,0.228-0.187,0.449-0.264,0.681
		C8.555,11.67,8.474,12,8.387,12.328c-0.059,0.222-0.131,0.44-0.181,0.664c-0.081,0.369-0.131,0.746-0.186,1.122
		c-0.028,0.191-0.071,0.379-0.092,0.572c-0.062,0.572-0.096,1.15-0.096,1.732v5.611C4.701,21.752,2.238,19.115,2.238,15.914z
		 M21.195,25.713c-1.029,0-1.866-0.837-1.866-1.866s0.836-1.865,1.866-1.865h5.119c1.028,0,1.865,0.837,1.865,1.865
		s-0.837,1.866-1.865,1.866H21.195z M38.586,26.454c0,7.994-6.361,14.513-14.285,14.804V26.805h2.014
		c1.631,0,2.958-1.328,2.958-2.958c0-1.631-1.327-2.958-2.958-2.958h-5.119c-1.631,0-2.958,1.327-2.958,2.958
		c0,1.63,1.326,2.958,2.958,2.958h2.014v14.452c-7.923-0.29-14.285-6.809-14.285-14.804v-3.309v-6.727
		c0-4.417,1.952-8.576,5.355-11.406c2.656-2.208,6.021-3.425,9.476-3.425s6.82,1.216,9.477,3.425
		c3.403,2.831,5.355,6.988,5.355,11.406v6.727V26.454z M45.271,15.914c0,3.201-2.463,5.838-5.594,6.115v-5.611
		c0-0.582-0.033-1.16-0.096-1.732c-0.021-0.194-0.063-0.383-0.092-0.575c-0.055-0.375-0.105-0.75-0.186-1.117
		c-0.05-0.229-0.123-0.451-0.184-0.675c-0.086-0.325-0.166-0.65-0.272-0.968c-0.079-0.235-0.18-0.463-0.27-0.694
		c-0.115-0.297-0.225-0.596-0.357-0.884c-0.107-0.234-0.234-0.457-0.353-0.685c-0.143-0.275-0.281-0.552-0.44-0.818
		c-0.134-0.225-0.285-0.438-0.43-0.656c-0.17-0.255-0.337-0.513-0.523-0.76c-0.159-0.21-0.333-0.409-0.502-0.612
		c-0.198-0.237-0.393-0.475-0.605-0.701c-0.182-0.193-0.376-0.376-0.569-0.561c-0.162-0.157-0.311-0.324-0.48-0.474
		c1.163-1.468,2.928-2.33,4.814-2.33c3.386,0,6.14,2.754,6.14,6.14V15.914z"/>
	<path fill="#333333" d="M15.176,13.701c-1.58,0-2.865,1.285-2.865,2.866s1.285,2.867,2.865,2.867c1.581,0,2.866-1.286,2.866-2.867
		S16.757,13.701,15.176,13.701z M15.176,18.341c-0.978,0-1.773-0.795-1.773-1.774c0-0.979,0.795-1.774,1.773-1.774
		c0.979,0,1.774,0.796,1.774,1.774C16.95,17.546,16.154,18.341,15.176,18.341z"/>
	<path fill="#333333" d="M32.333,13.701c-1.581,0-2.866,1.285-2.866,2.866s1.286,2.867,2.866,2.867s2.866-1.286,2.866-2.867
		S33.914,13.701,32.333,13.701z M32.333,18.341c-0.978,0-1.774-0.795-1.774-1.774c0-0.979,0.796-1.774,1.774-1.774
		s1.774,0.796,1.774,1.774C34.107,17.546,33.312,18.341,32.333,18.341z"/>
</g>
</svg>
