<?xml version="1.0" encoding="utf-8"?>
<!-- Generator: Adobe Illustrator 16.0.0, SVG Export Plug-In . SVG Version: 6.00 Build 0)  -->
<svg version="1.2" baseProfile="tiny" id="Layer_1" xmlns="http://www.w3.org/2000/svg" xmlns:xlink="http://www.w3.org/1999/xlink"
	 x="0px" y="0px" width="20.562px" height="21.005px" viewBox="0 0 20.562 21.005" xml:space="preserve">
<path fill="#98D603" d="M18.574,9.394l-0.016-0.167c-0.012-0.137-0.024-0.273-0.047-0.405c-0.205-1.189-1.096-1.935-2.238-1.836
	c-0.59,0.052-1.113,0.283-1.557,0.686c0.297-0.67,0.46-1.429,0.491-2.307c-0.012-0.567-0.069-1.231-0.401-1.854
	c-0.379-0.714-1.062-1.14-1.827-1.14c-0.492,0-0.959,0.178-1.352,0.514c-0.293,0.251-0.57,0.581-0.801,0.954
	c-0.333,0.541-0.543,1.158-0.633,1.84c-0.066-0.427-0.184-0.859-0.356-1.296C9.582,3.741,9.234,3.244,8.775,2.863
	c-0.373-0.31-0.871-0.488-1.366-0.488c-0.795,0-1.458,0.428-1.818,1.17C5.336,4.071,5.208,4.669,5.203,5.381
	C5.21,6.167,5.357,6.914,5.641,7.599c0.007,0.015,0.014,0.029,0.021,0.044C5.384,7.405,5.051,7.217,4.66,7.09
	C4.419,7.012,4.176,6.971,3.938,6.971c-0.867,0-1.592,0.533-1.891,1.389C1.958,8.613,1.915,8.872,1.88,9.081
	c-0.013,0.077-0.024,0.148-0.037,0.21c-0.007,0.034-0.01,0.068-0.007,0.102c0.101,1.526,0.713,2.661,1.873,3.47
	c0.397,0.275,0.852,0.422,1.316,0.422c0.124,0,0.249-0.011,0.374-0.031c0.29-0.047,0.554-0.165,0.785-0.333
	c-0.536,0.711-0.979,1.513-1.322,2.406c-0.157,0.41-0.314,0.905-0.283,1.458c0.053,0.928,0.603,1.562,1.508,1.739
	c0.522,0.102,1.058,0.093,1.564-0.028c0.731-0.175,1.48-0.401,2.083-0.583c0.352-0.106,0.659-0.106,0.974,0.001l0.253,0.088
	c0.153,0.054,0.307,0.108,0.462,0.158c0.736,0.24,1.448,0.459,2.073,0.489l0.076,0c0.621,0,1.021-0.103,1.383-0.357
	c0.716-0.501,1.034-1.415,0.811-2.328c-0.221-0.898-0.637-1.774-1.311-2.758c-0.077-0.111-0.154-0.215-0.231-0.321
	c0.348,0.249,0.766,0.387,1.208,0.387c0.512,0,1.009-0.176,1.438-0.51c1.035-0.806,1.608-1.917,1.705-3.306
	C18.577,9.438,18.576,9.415,18.574,9.394z M11.47,4.236c0.189-0.307,0.414-0.575,0.649-0.776c0.254-0.218,0.551-0.333,0.86-0.333
	c0.48,0,0.914,0.276,1.16,0.74c0.207,0.39,0.298,0.829,0.312,1.494c-0.037,1.066-0.294,1.937-0.787,2.664
	c-0.22,0.324-0.494,0.549-0.835,0.687c-0.594,0.241-1.139,0.067-1.479-0.475c-0.293-0.47-0.441-1.024-0.452-1.695
	C10.884,5.637,11.071,4.883,11.47,4.236z M6.271,3.875c0.313-0.647,0.847-0.744,1.138-0.744c0.322,0,0.644,0.113,0.884,0.313
	c0.36,0.298,0.635,0.697,0.842,1.218c0.433,1.093,0.486,2.099,0.163,3.074c-0.161,0.483-0.39,0.788-0.72,0.958
	C8.25,8.865,7.919,8.874,7.576,8.723C7.027,8.484,6.646,8.048,6.339,7.31C6.092,6.714,5.964,6.062,5.958,5.381
	C5.963,4.782,6.063,4.304,6.271,3.875z M5.277,12.508c-0.403,0.065-0.792-0.025-1.137-0.266c-0.959-0.669-1.452-1.577-1.547-2.85
	c0.011-0.059,0.021-0.122,0.033-0.188C2.657,9.015,2.693,8.801,2.76,8.61c0.252-0.722,0.921-1.044,1.667-0.802
	c0.414,0.134,0.74,0.348,0.969,0.636c0.741,0.929,1.028,1.896,0.876,2.954C6.188,11.987,5.798,12.423,5.277,12.508z M15.032,16.146
	c0.148,0.609-0.052,1.209-0.511,1.529c-0.188,0.133-0.422,0.221-0.95,0.221h-0.052c-0.519-0.026-1.177-0.229-1.863-0.452
	c-0.15-0.049-0.298-0.101-0.446-0.154l-0.258-0.089c-0.234-0.081-0.477-0.122-0.72-0.122c-0.232,0-0.474,0.038-0.717,0.111
	c-0.753,0.227-1.382,0.414-2.041,0.571c-0.401,0.096-0.826,0.104-1.242,0.021c-0.563-0.11-0.866-0.459-0.899-1.039
	c-0.023-0.412,0.105-0.81,0.234-1.146c0.625-1.628,1.557-2.883,2.847-3.839c0.496-0.367,1.05-0.579,1.646-0.629
	c0.534-0.045,1.055,0.077,1.561,0.359c0.812,0.454,1.514,1.136,2.209,2.148C14.452,14.541,14.833,15.339,15.032,16.146z
	 M11.991,10.829c-0.637-0.355-1.304-0.509-1.992-0.452c-0.738,0.062-1.423,0.322-2.033,0.774c-0.422,0.312-0.808,0.663-1.164,1.043
	c0.106-0.21,0.184-0.441,0.22-0.689c0.123-0.861-0.007-1.688-0.375-2.474c0.19,0.154,0.397,0.285,0.628,0.384
	c0.258,0.113,0.521,0.17,0.781,0.17c0.296,0,0.589-0.075,0.87-0.22c0.51-0.264,0.866-0.719,1.089-1.392
	c0.084-0.252,0.144-0.511,0.184-0.771c0.08,0.535,0.247,1.009,0.512,1.434c0.378,0.605,0.948,0.938,1.604,0.938
	c0.264,0,0.533-0.055,0.799-0.163c0.205-0.083,0.391-0.194,0.564-0.324c-0.253,0.558-0.384,1.173-0.385,1.843
	c-0.001,0.417,0.083,0.792,0.243,1.125C13.052,11.541,12.546,11.139,11.991,10.829z M16.406,12.167
	c-0.296,0.23-0.633,0.351-0.975,0.351c-0.421,0-0.794-0.182-1.051-0.514c-0.222-0.286-0.333-0.646-0.332-1.073
	c0.002-1.073,0.394-1.979,1.164-2.69c0.321-0.296,0.7-0.465,1.126-0.502c0.044-0.003,0.088-0.006,0.131-0.006
	c0.671,0,1.168,0.466,1.297,1.218c0.02,0.113,0.029,0.226,0.039,0.341l0.013,0.145C17.731,10.603,17.269,11.498,16.406,12.167z"/>
</svg>
