<?xml version="1.0" encoding="utf-8"?>
<!-- Generator: Adobe Illustrator 16.0.0, SVG Export Plug-In . SVG Version: 6.00 Build 0)  -->
<svg version="1.2" baseProfile="tiny" id="Layer_1" xmlns="http://www.w3.org/2000/svg" xmlns:xlink="http://www.w3.org/1999/xlink"
	 x="0px" y="0px" width="20.562px" height="21.005px" viewBox="0 0 20.562 21.005" xml:space="preserve">
<path fill="#98D603" d="M19.416,7.082c0-0.002,0-0.004,0-0.006c-0.011-1.865-1.532-3.379-3.399-3.379H4.805
	c-1.867,0-3.388,1.514-3.399,3.379c0,0.002,0,0.004,0,0.006c0,0.005-0.001,0.01-0.001,0.014v6.961c0,1.875,1.525,3.399,3.4,3.399
	h11.212c1.875,0,3.4-1.524,3.4-3.399V7.096C19.417,7.091,19.416,7.086,19.416,7.082z M4.805,4.451h11.212
	c1.379,0,2.514,1.062,2.633,2.413l-8.239,3.944l-1.156-0.554c-0.018-0.011-0.035-0.019-0.054-0.026L2.172,6.863
	C2.291,5.514,3.426,4.451,4.805,4.451z M2.161,7.696l6.211,2.975l-5.727,4.907c-0.304-0.432-0.484-0.956-0.484-1.521V7.696z
	 M4.805,16.701c-0.62,0-1.188-0.217-1.64-0.575l5.953-5.1l1.13,0.542c0.052,0.024,0.107,0.036,0.163,0.036
	c0.056,0,0.112-0.012,0.164-0.036l1.203-0.577l5.883,5.132c-0.452,0.361-1.022,0.578-1.643,0.578H4.805z M18.179,15.574l-5.66-4.937
	l6.142-2.941v6.361C18.661,14.622,18.482,15.144,18.179,15.574z"/>
</svg>
