<?xml version="1.0" encoding="utf-8"?>
<!-- Generator: Adobe Illustrator 16.0.0, SVG Export Plug-In . SVG Version: 6.00 Build 0)  -->
<svg version="1.2" baseProfile="tiny" id="Layer_1" xmlns="http://www.w3.org/2000/svg" xmlns:xlink="http://www.w3.org/1999/xlink"
	 x="0px" y="0px" width="20.562px" height="21.005px" viewBox="0 0 20.562 21.005" xml:space="preserve">
<path fill="#98D603" d="M18.311,12.305c0-0.936-0.733-1.697-1.655-1.758c-0.587-1.52-2.033-2.522-3.685-2.522h-0.047
	c0.438-0.675,0.674-1.462,0.674-2.28c0-2.317-1.886-4.204-4.204-4.204c-2.317,0-4.202,1.886-4.202,4.204
	c0,0.818,0.235,1.605,0.673,2.28H5.817c-2.181,0-3.955,1.774-3.955,3.956v3.841c0,0.208,0.169,0.378,0.378,0.378h7.89
	c0.371,1.892,2.04,3.325,4.039,3.325c2.271,0,4.117-1.848,4.117-4.118c0-0.658-0.159-1.304-0.461-1.887
	C18.133,13.193,18.311,12.759,18.311,12.305z M10.052,15.444H2.618V11.98c0-1.765,1.436-3.2,3.199-3.2h0.829
	c0.151,0,0.289-0.091,0.348-0.23c0.06-0.139,0.029-0.302-0.076-0.41C6.292,7.492,5.946,6.642,5.946,5.744
	c0-1.901,1.546-3.447,3.447-3.447c1.901,0,3.448,1.546,3.448,3.447c0,0.897-0.345,1.748-0.972,2.396
	c-0.105,0.108-0.135,0.271-0.076,0.41c0.06,0.139,0.196,0.23,0.348,0.23h0.829c1.278,0,2.406,0.742,2.917,1.883
	c-0.001,0-0.001,0-0.001,0c-0.079,0.032-0.154,0.069-0.228,0.112c-0.032,0.018-0.062,0.041-0.094,0.061
	c-0.037,0.026-0.074,0.05-0.109,0.078c-0.035,0.028-0.068,0.057-0.101,0.085c-0.03,0.028-0.059,0.058-0.088,0.088
	c-0.029,0.03-0.059,0.061-0.086,0.094c-0.042,0.05-0.08,0.104-0.116,0.161c-0.009,0.014-0.02,0.025-0.029,0.039
	c-0.563-0.121-1.142-0.123-1.711-0.003c-0.318-0.515-0.887-0.843-1.502-0.843c-0.977,0-1.771,0.794-1.771,1.77
	c0,0.443,0.171,0.872,0.471,1.195c-0.309,0.588-0.471,1.241-0.471,1.906C10.051,15.418,10.051,15.431,10.052,15.444z M17.023,13.638
	c0.332,0.534,0.506,1.145,0.506,1.768c0,1.854-1.508,3.361-3.361,3.361c-1.728,0-3.153-1.311-3.34-2.989
	c-0.013-0.122-0.022-0.246-0.022-0.373c0-0.628,0.178-1.244,0.514-1.78c0.105-0.168,0.063-0.389-0.096-0.506
	c-0.265-0.194-0.418-0.492-0.418-0.815c0-0.56,0.456-1.015,1.015-1.015c0.304,0,0.587,0.142,0.776,0.371
	c0.071,0.085,0.129,0.182,0.169,0.289c0.052,0.139,0.178,0.23,0.317,0.244c0.047,0.004,0.095,0,0.142-0.013
	c0.631-0.184,1.284-0.181,1.905,0.004c0.048,0.015,0.097,0.019,0.144,0.015c0.141-0.014,0.267-0.106,0.318-0.246
	c0.031-0.083,0.073-0.158,0.122-0.228c0.007-0.01,0.013-0.021,0.02-0.031c0.048-0.064,0.104-0.12,0.165-0.17
	c0.012-0.009,0.023-0.02,0.035-0.029c0.065-0.049,0.137-0.091,0.213-0.123c0.006-0.002,0.013-0.005,0.02-0.007
	c0.083-0.033,0.171-0.057,0.263-0.066c0.001-0.001,0.002-0.002,0.003-0.002c0.036-0.003,0.071-0.008,0.107-0.008
	c0.559,0,1.014,0.455,1.014,1.015c0,0.326-0.161,0.635-0.43,0.826C16.963,13.246,16.918,13.469,17.023,13.638z"/>
</svg>
