<?xml version="1.0" encoding="utf-8"?>
<!-- Generator: Adobe Illustrator 16.0.0, SVG Export Plug-In . SVG Version: 6.00 Build 0)  -->
<svg version="1.2" baseProfile="tiny" id="Layer_1" xmlns="http://www.w3.org/2000/svg" xmlns:xlink="http://www.w3.org/1999/xlink"
	 x="0px" y="0px" width="49.25px" height="49.5px" viewBox="0 0 49.25 49.5" xml:space="preserve">
<path fill="#BCBEC0" d="M24.523,44.058c-4.974,0-9.649-1.937-13.166-5.455c-3.517-3.516-5.454-8.191-5.454-13.166
	c0-4.972,1.937-9.647,5.454-13.165c3.517-3.516,8.192-5.454,13.166-5.454c4.973,0,9.649,1.938,13.166,5.454
	c7.259,7.259,7.259,19.071,0,26.331C34.172,42.121,29.497,44.058,24.523,44.058z M24.523,8.02c-4.653,0-9.027,1.812-12.317,5.102
	c-3.29,3.291-5.103,7.665-5.103,12.316c0,4.654,1.812,9.028,5.103,12.319c3.29,3.289,7.664,5.101,12.317,5.101
	c4.653,0,9.027-1.812,12.317-5.101c6.792-6.792,6.792-17.844,0-24.635C33.55,9.832,29.176,8.02,24.523,8.02z"/>
<g>
	<rect x="23.052" y="32.325" fill="#BCBEC0" width="1.911" height="2.631"/>
	<path fill="#BCBEC0" d="M24.166,14.291c-2.992,0-6.187,1.725-6.241,6.549h1.508c0.043-3.268,1.795-5.214,4.705-5.214
		c2.499,0,4.245,1.626,4.245,3.956c0,1.37-0.554,2.507-1.852,3.805l-0.384,0.383c-2.229,2.22-2.848,2.836-2.863,6.116h1.478
		c0.004-2.179,0.123-3.045,1.854-4.662l0.275-0.256c1.687-1.572,3.143-2.929,3.143-5.5C30.033,16.372,27.675,14.291,24.166,14.291z"
		/>
</g>
</svg>
