<?xml version="1.0" encoding="utf-8"?>
<!-- Generator: Adobe Illustrator 16.0.0, SVG Export Plug-In . SVG Version: 6.00 Build 0)  -->
<svg version="1.2" baseProfile="tiny" id="Layer_1" xmlns="http://www.w3.org/2000/svg" xmlns:xlink="http://www.w3.org/1999/xlink"
	 x="0px" y="0px" width="49.25px" height="49.5px" viewBox="0 0 49.25 49.5" xml:space="preserve">
<path fill="#FFFFFF" d="M47.664,16.318l-6.939-6.939l6.938-6.938c0.234-0.234,0.234-0.615,0-0.849s-0.614-0.234-0.849,0
	l-6.938,6.939l-6.939-6.939c-0.234-0.234-0.614-0.234-0.848,0c-0.235,0.234-0.235,0.615,0,0.849l6.939,6.938l-6.536,6.536
	c-3.463-3.251-7.949-5.05-12.721-5.05c-4.973,0-9.649,1.938-13.166,5.454c-7.259,7.259-7.259,19.073,0,26.332
	c3.517,3.516,8.193,5.452,13.166,5.452c4.974,0,9.649-1.936,13.166-5.452c7.116-7.116,7.238-18.598,0.403-25.886l6.536-6.537
	l6.939,6.939c0.117,0.117,0.271,0.176,0.424,0.176s0.307-0.059,0.424-0.177C47.898,16.932,47.898,16.553,47.664,16.318z
	 M32.088,41.802c-3.29,3.289-7.665,5.101-12.317,5.101s-9.027-1.812-12.317-5.101c-6.792-6.792-6.792-17.844,0-24.636
	c3.291-3.29,7.665-5.102,12.317-5.102c4.652,0,9.026,1.811,12.316,5.1c0,0.001,0,0.001,0.001,0.002h0.001
	C38.879,23.96,38.879,35.011,32.088,41.802z"/>
<path fill="#FFFFFF" d="M23.624,27.922l6.141-6.349h-1.624l-7.51,7.979c-0.035,0.038-0.09,0.049-0.137,0.03
	c-0.048-0.018-0.079-0.064-0.079-0.116v-7.893h-1.208v7.893c0,0.051-0.031,0.098-0.079,0.116c-0.045,0.019-0.102,0.008-0.137-0.03
	l-7.51-7.979H9.858L16,27.922c0.043,0.045,0.047,0.115,0.008,0.164l-6.722,8.502h1.567l5.987-7.584
	c0.022-0.029,0.056-0.047,0.092-0.048c0.03-0.002,0.071,0.013,0.096,0.038l2.144,2.229c0.022,0.024,0.035,0.055,0.035,0.087v5.278
	h1.208v-5.278c0-0.032,0.013-0.063,0.035-0.087l2.144-2.229c0.025-0.025,0.056-0.04,0.096-0.038c0.036,0.001,0.07,0.02,0.092,0.048
	l5.986,7.584h1.568l-6.721-8.502C23.577,28.038,23.58,27.967,23.624,27.922z"/>
</svg>
