<?xml version="1.0" encoding="utf-8"?>
<!-- Generator: Adobe Illustrator 16.0.0, SVG Export Plug-In . SVG Version: 6.00 Build 0)  -->
<svg version="1.2" baseProfile="tiny" id="Layer_1" xmlns="http://www.w3.org/2000/svg" xmlns:xlink="http://www.w3.org/1999/xlink"
	 x="0px" y="0px" width="49.25px" height="49.5px" viewBox="0 0 49.25 49.5" xml:space="preserve">
<path fill="#BCBEC0" d="M47.947,1.686c-0.005-0.331-0.272-0.596-0.607-0.591L32.783,1.263c-0.332,0.004-0.597,0.276-0.593,0.608
	c0.004,0.331,0.266,0.593,0.607,0.592l13.389-0.154L32.609,15.885c-3.489-3.37-8.06-5.232-12.922-5.232
	c-4.974,0-9.649,1.938-13.166,5.454c-3.517,3.517-5.454,8.192-5.454,13.165c0,4.974,1.937,9.649,5.454,13.166
	c3.517,3.518,8.192,5.454,13.166,5.454c4.973,0,9.649-1.937,13.166-5.454c7.051-7.051,7.231-18.386,0.585-25.684L46.772,3.419
	l0.195,13.23c0.005,0.328,0.272,0.591,0.6,0.591c0.003,0,0.006,0,0.009,0c0.332-0.005,0.596-0.278,0.591-0.608L47.947,1.686z
	 M32.005,41.59c-3.291,3.29-7.665,5.102-12.317,5.102S10.66,44.879,7.37,41.59c-3.29-3.291-5.102-7.666-5.102-12.319
	c0-4.652,1.812-9.026,5.102-12.316c3.29-3.29,7.665-5.102,12.317-5.102s9.027,1.812,12.317,5.102
	C38.796,23.746,38.796,34.798,32.005,41.59z"/>
<path fill="#BCBEC0" d="M20.129,35.183c-0.147,0.429-0.294,0.859-0.449,1.286c-0.018,0.049-0.065,0.082-0.118,0.082l0,0
	c-0.053,0-0.1-0.033-0.117-0.083c-0.092-0.258-0.182-0.515-0.272-0.773c-0.295-0.843-0.601-1.715-0.944-2.554l-5.117-12.559h-2.079
	v17.459h1.366V27.422c0-1.695-0.065-3.466-0.198-5.414c-0.004-0.062,0.039-0.12,0.101-0.131c0.062-0.012,0.124,0.024,0.143,0.084
	c0.287,0.902,0.679,2.086,1.165,3.248l5.267,12.832h1.349l5.191-12.979c0.421-1.04,0.813-2.116,1.167-3.2
	c0.019-0.06,0.077-0.097,0.143-0.084c0.062,0.012,0.105,0.068,0.101,0.131c-0.134,2.006-0.199,3.825-0.199,5.562v10.57h1.367V20.582
	h-2.104l-5.042,12.607C20.59,33.84,20.355,34.522,20.129,35.183z"/>
</svg>
