<?xml version="1.0" encoding="utf-8"?>
<!-- Generator: Adobe Illustrator 16.0.0, SVG Export Plug-In . SVG Version: 6.00 Build 0)  -->
<svg version="1.2" baseProfile="tiny" id="Layer_2" xmlns="http://www.w3.org/2000/svg" xmlns:xlink="http://www.w3.org/1999/xlink"
	 x="0px" y="0px" width="57px" height="49px" viewBox="0 0 57 49" xml:space="preserve">
<path fill="#27AAE1" d="M45.868,40.522c-1.265,0-2.295-1.03-2.295-2.296v-7.285c-0.776,0.367-1.611,0.612-2.466,0.722v6.563
	c0,1.266-1.03,2.296-2.296,2.296c-1.265,0-2.294-1.03-2.294-2.296v-6.494h-4.551v6.494c0,1.266-1.03,2.296-2.295,2.296
	c-1.266,0-2.296-1.03-2.296-2.296v-6.597c-0.858-0.138-1.693-0.412-2.466-0.811v7.408c0,1.266-1.029,2.296-2.294,2.296
	c-1.266,0-2.296-1.03-2.296-2.296v-14.36c0-0.061,0.002-0.121,0.007-0.181h-7.308c-2.665,0-4.832-2.167-4.832-4.831
	c0-0.369,0.005-1.095,0.009-1.75l0.007-1.223c0-1.06,1.181-1.883,2.198-1.883l3.927,0.022c1.036-1.634,2.787-2.695,4.705-2.862
	l0.112-3.341c0.005-0.16,0.087-0.309,0.221-0.399c0.133-0.089,0.302-0.108,0.453-0.053c5.122,1.906,6.872,2.952,10.534,7.892h9.698
	c1.175,0,2.335,0.252,3.4,0.735v-5.062c0-1.3,1.058-2.358,2.357-2.358c1.299,0,2.357,1.058,2.357,2.358l0,0
	c0,0,0.124,12.097,0.124,12.566c0,0.468-0.124,14.735-0.124,14.735C48.163,39.492,47.133,40.522,45.868,40.522z M44.073,29.604
	c0.084,0,0.168,0.021,0.245,0.064c0.158,0.088,0.255,0.255,0.255,0.436v8.122c0,0.714,0.581,1.296,1.295,1.296
	c0.714,0,1.295-0.582,1.295-1.296c0-0.004,0.124-14.262,0.124-14.73c0-0.469-0.124-12.562-0.124-12.562
	c0-0.753-0.608-1.362-1.357-1.362s-1.357,0.609-1.357,1.358v5.883c0,0.179-0.096,0.345-0.251,0.434
	c-0.154,0.088-0.346,0.088-0.501-0.002c-1.105-0.646-2.367-0.987-3.648-0.987h-9.951c-0.159,0-0.309-0.076-0.402-0.204
	c-3.469-4.713-5.038-5.782-9.577-7.506l-0.104,3.105c-0.009,0.268-0.228,0.48-0.495,0.483c-1.846,0.016-3.562,1.026-4.477,2.634
	c-0.089,0.158-0.292,0.265-0.437,0.253l-4.209-0.024c-0.509,0-1.195,0.438-1.195,0.883l-0.007,1.23
	c-0.004,0.652-0.009,1.375-0.009,1.743c0,2.112,1.719,3.831,3.832,3.831h7.933c0.276,0,0.5,0.224,0.5,0.5
	c0,0.064-0.012,0.135-0.036,0.194c-0.064,0.159-0.096,0.322-0.096,0.487v14.36c0,0.714,0.582,1.296,1.296,1.296
	c0.714,0,1.294-0.582,1.294-1.296v-8.28c0-0.185,0.102-0.354,0.264-0.441c0.162-0.088,0.359-0.078,0.513,0.024
	c0.969,0.643,2.089,1.045,3.241,1.164c0.255,0.026,0.449,0.241,0.449,0.497v7.036c0,0.714,0.582,1.296,1.296,1.296
	s1.295-0.582,1.295-1.296v-6.994c0-0.276,0.224-0.5,0.5-0.5h5.551c0.276,0,0.5,0.224,0.5,0.5v6.994c0,0.714,0.581,1.296,1.294,1.296
	c0.715,0,1.296-0.582,1.296-1.296V31.21c0-0.262,0.203-0.48,0.464-0.498c1.146-0.082,2.267-0.441,3.241-1.035
	C43.892,29.629,43.982,29.604,44.073,29.604z"/>
</svg>
