<?xml version="1.0" encoding="utf-8"?>
<!-- Generator: Adobe Illustrator 16.0.0, SVG Export Plug-In . SVG Version: 6.00 Build 0)  -->
<svg version="1.2" baseProfile="tiny" id="Layer_2" xmlns="http://www.w3.org/2000/svg" xmlns:xlink="http://www.w3.org/1999/xlink"
	 x="0px" y="0px" width="57px" height="49px" viewBox="0 0 57 49" xml:space="preserve">
<path fill="#98D603" d="M42.109,37.591c-1.054,0-1.912-0.858-1.912-1.912v-5.567c-0.549,0.242-1.132,0.409-1.728,0.495v5.072
	c0,1.054-0.858,1.912-1.913,1.912c-1.054,0-1.913-0.858-1.913-1.912v-5.004h-3.367v5.004c0,1.054-0.858,1.912-1.913,1.912
	c-1.055,0-1.913-0.858-1.913-1.912v-5.102c-0.597-0.104-1.18-0.292-1.727-0.556v5.657c0,1.054-0.858,1.912-1.913,1.912
	c-1.055,0-1.913-0.858-1.913-1.912v-11.3c0-0.012,0-0.024,0-0.036H16.26c-2.155,0-3.908-1.752-3.908-3.907l0.013-2.34
	c0-0.909,0.969-1.588,1.836-1.588l3.032,0.017c0.819-1.259,2.171-2.084,3.656-2.243l0.085-2.535c0.005-0.161,0.087-0.31,0.221-0.399
	c0.134-0.09,0.303-0.109,0.453-0.054c4.039,1.503,5.429,2.33,8.306,6.204h7.577c0.885,0,1.759,0.179,2.569,0.522v-3.821
	c0-1.082,0.88-1.961,1.961-1.961s1.961,0.879,1.961,1.961l0,0c0,0,0.098,9.52,0.098,9.889c0,0.368-0.098,11.596-0.098,11.596
	C44.022,36.733,43.164,37.591,42.109,37.591z M40.697,28.788c0.084,0,0.168,0.021,0.245,0.064c0.158,0.088,0.255,0.256,0.255,0.436
	v6.391c0,0.502,0.409,0.912,0.912,0.912c0.503,0,0.913-0.41,0.913-0.912c0-0.004,0.098-11.224,0.098-11.591
	c0-0.369-0.098-9.884-0.098-9.884c0-0.535-0.431-0.966-0.961-0.966s-0.961,0.431-0.961,0.961v4.63c0,0.179-0.096,0.345-0.251,0.434
	c-0.154,0.089-0.346,0.088-0.501-0.002c-0.853-0.499-1.827-0.762-2.817-0.762h-7.829c-0.159,0-0.309-0.076-0.403-0.204
	c-2.677-3.638-3.906-4.499-7.348-5.817l-0.077,2.294c-0.008,0.268-0.227,0.48-0.495,0.483c-1.415,0.013-2.729,0.786-3.431,2.019
	c-0.089,0.158-0.273,0.271-0.437,0.253l-3.312-0.019c-0.373,0-0.833,0.324-0.833,0.588l-0.013,2.34c0,1.603,1.305,2.907,2.908,2.907
	h6.242c0.276,0,0.5,0.224,0.5,0.5c0,0.063-0.012,0.133-0.035,0.191c-0.046,0.115-0.069,0.231-0.069,0.345v11.3
	c0,0.502,0.41,0.912,0.913,0.912c0.504,0,0.913-0.41,0.913-0.912v-6.516c0-0.185,0.102-0.354,0.264-0.44
	c0.162-0.088,0.359-0.079,0.513,0.024c0.748,0.495,1.613,0.806,2.502,0.899c0.255,0.026,0.449,0.24,0.449,0.497v5.536
	c0,0.502,0.41,0.912,0.913,0.912s0.913-0.41,0.913-0.912v-5.504c0-0.275,0.224-0.5,0.5-0.5h4.367c0.276,0,0.5,0.225,0.5,0.5v5.504
	c0,0.502,0.41,0.912,0.913,0.912c0.503,0,0.913-0.41,0.913-0.912v-5.521c0-0.263,0.203-0.48,0.464-0.499
	c0.885-0.063,1.75-0.339,2.503-0.798C40.517,28.812,40.606,28.788,40.697,28.788z"/>
</svg>
