<?xml version="1.0" encoding="utf-8"?>
<!-- Generator: Adobe Illustrator 16.0.0, SVG Export Plug-In . SVG Version: 6.00 Build 0)  -->
<svg version="1.2" baseProfile="tiny" id="Layer_2" xmlns="http://www.w3.org/2000/svg" xmlns:xlink="http://www.w3.org/1999/xlink"
	 x="0px" y="0px" width="57px" height="49px" viewBox="0 0 57 49" xml:space="preserve">
<path fill="#27AAE1" d="M45.896,46.979c-1.321,0-2.396-1.075-2.396-2.396V33.417c-0.869,0.442-1.816,0.732-2.792,0.854v10.312
	c0,1.321-1.075,2.396-2.396,2.396s-2.396-1.075-2.396-2.396V34.344h-7.948v10.144c0,1.374-1.075,2.491-2.396,2.491
	s-2.396-1.117-2.396-2.491V34.293c-0.999-0.098-1.973-0.374-2.871-0.81v11.004c0,1.374-1.075,2.491-2.396,2.491
	s-2.396-1.117-2.396-2.491V25.59h-0.731c-4.639,0-8.414-3.775-8.414-8.415c0-0.3,0.017-0.594,0.047-0.886L6.412,6.943
	c0-0.277,0.224-0.5,0.5-0.5c2.1,0,3.956,1.104,4.929,2.85c0.943-0.354,1.93-0.532,2.941-0.532h4.872
	c1.022,0,2.021,0.184,2.975,0.547c0.97-1.755,2.823-2.865,4.847-2.865c0.276,0,0.592,0.223,0.592,0.5V17.03
	c0,0.022-0.001,0.043-0.004,0.064l0.004,0.081c0,0.07-0.001,0.141-0.003,0.211h11.591c1.344,0,2.657,0.318,3.846,0.926V3.5
	c0-1.321,1.075-2.396,2.396-2.396s2.396,1.075,2.396,2.396v41.084C48.292,45.904,47.217,46.979,45.896,46.979z M44,32.052
	c0.082,0,0.164,0.02,0.238,0.06C44.4,32.2,44.5,32.369,44.5,32.552v12.031c0,0.769,0.626,1.396,1.396,1.396s1.396-0.627,1.396-1.396
	V3.5c0-0.77-0.626-1.396-1.396-1.396S44.5,2.73,44.5,3.5v15.679c0,0.184-0.101,0.352-0.262,0.44
	c-0.161,0.087-0.357,0.079-0.512-0.021c-1.216-0.792-2.624-1.211-4.072-1.211H27.531c-0.14,0-0.274-0.059-0.369-0.163
	c-0.095-0.104-0.142-0.242-0.129-0.381c0.02-0.22,0.034-0.442,0.034-0.667c-0.001-0.044,0.003-0.094,0.013-0.145h-0.013V7.468
	c-1.668,0.169-3.078,1.185-3.742,2.682c-0.054,0.121-0.153,0.217-0.277,0.265c-0.124,0.047-0.262,0.043-0.383-0.01
	c-0.959-0.427-1.972-0.643-3.012-0.643h-4.872c-1.03,0-2.032,0.211-2.979,0.627c-0.251,0.109-0.545-0.003-0.657-0.254
	c-0.677-1.509-2.114-2.526-3.733-2.673v8.88c-0.03,0.309-0.044,0.569-0.044,0.833c0,4.088,3.326,7.415,7.414,7.415h1.265
	c0.147,0,0.287,0.064,0.382,0.177c0.095,0.112,0.136,0.26,0.111,0.405c-0.015,0.086-0.026,0.175-0.026,0.266v19.051
	c0,0.822,0.626,1.491,1.396,1.491s1.396-0.669,1.396-1.491V32.637c0-0.182,0.098-0.349,0.257-0.437
	c0.158-0.088,0.352-0.083,0.507,0.012c1.087,0.677,2.341,1.063,3.628,1.115c0.268,0.012,0.479,0.231,0.479,0.5v10.661
	c0,0.822,0.626,1.491,1.396,1.491c0.77,0,1.396-0.669,1.396-1.491V33.844c0-0.276,0.224-0.5,0.5-0.5h8.948
	c0.276,0,0.5,0.224,0.5,0.5v10.739c0,0.769,0.626,1.396,1.396,1.396c0.769,0,1.396-0.627,1.396-1.396V33.817
	c0-0.262,0.204-0.48,0.465-0.499c1.271-0.088,2.5-0.498,3.554-1.185C43.81,32.079,43.905,32.052,44,32.052z"/>
</svg>
