<?xml version="1.0" encoding="utf-8"?>
<!-- Generator: Adobe Illustrator 16.0.0, SVG Export Plug-In . SVG Version: 6.00 Build 0)  -->
<svg version="1.2" baseProfile="tiny" id="Layer_2" xmlns="http://www.w3.org/2000/svg" xmlns:xlink="http://www.w3.org/1999/xlink"
	 x="0px" y="0px" width="57px" height="49px" viewBox="0 0 57 49" xml:space="preserve">
<path fill="#27AAE1" d="M38.227,37.917c-0.877,0-1.59-0.713-1.59-1.59v-6.397c-0.376,0.16-0.773,0.274-1.179,0.341v6.056
	c0,0.877-0.713,1.59-1.589,1.59c-0.876,0-1.589-0.713-1.589-1.59v-5.985h-4.142v5.931c0,0.907-0.713,1.645-1.59,1.645
	s-1.59-0.737-1.59-1.645v-5.984c-0.421-0.058-0.832-0.168-1.224-0.327v6.312c0,0.907-0.713,1.645-1.59,1.645
	c-0.876,0-1.589-0.737-1.589-1.645V25.31h-0.208c-2.783,0-5.048-2.265-5.048-5.048c0-0.18,0.01-0.356,0.028-0.531l-0.003-5.348
	c0-0.277,0.224-0.5,0.5-0.5c1.22,0,2.309,0.611,2.926,1.591c0.515-0.172,1.05-0.259,1.597-0.259h2.799
	c0.554,0,1.095,0.089,1.616,0.267c0.615-0.985,1.7-1.599,2.878-1.599c0.276,0,0.554,0.223,0.554,0.5v5.788h6.446
	c0.691,0,1.369,0.139,1.997,0.409v-7.909c0-0.876,0.713-1.589,1.59-1.589s1.59,0.713,1.59,1.589v23.655
	C39.817,37.204,39.104,37.917,38.227,37.917z M37.137,28.598c0.082,0,0.164,0.02,0.238,0.061c0.161,0.087,0.262,0.255,0.262,0.439
	v7.229c0,0.326,0.265,0.59,0.59,0.59s0.59-0.265,0.59-0.59V12.671c0-0.325-0.265-0.589-0.59-0.589s-0.59,0.264-0.59,0.589v8.742
	c0,0.184-0.1,0.352-0.262,0.439c-0.161,0.088-0.357,0.08-0.511-0.02C36.2,21.398,35.43,21.17,34.64,21.17h-6.965
	c-0.14,0-0.273-0.059-0.368-0.163c-0.095-0.103-0.142-0.241-0.13-0.381c0.011-0.121,0.018-0.242,0.018-0.365
	c0-0.027,0.002-0.056,0.006-0.083h-0.006V14.93c-0.78,0.154-1.424,0.662-1.743,1.382c-0.054,0.121-0.154,0.215-0.278,0.263
	c-0.125,0.047-0.261,0.044-0.384-0.01c-0.521-0.233-1.074-0.351-1.643-0.351h-2.799c-0.562,0-1.109,0.115-1.626,0.342
	c-0.251,0.11-0.545-0.003-0.657-0.253c-0.326-0.724-0.981-1.233-1.739-1.379v4.858c-0.018,0.192-0.025,0.334-0.025,0.479
	c0,2.231,1.816,4.048,4.048,4.048h0.727c0.147,0,0.286,0.064,0.381,0.177c0.095,0.111,0.136,0.26,0.112,0.405
	c-0.007,0.038-0.012,0.078-0.012,0.118v11.263c0,0.355,0.264,0.645,0.589,0.645c0.326,0,0.59-0.29,0.59-0.645v-7.125
	c0-0.182,0.099-0.349,0.257-0.437s0.353-0.083,0.507,0.013c0.592,0.369,1.277,0.58,1.979,0.608c0.268,0.012,0.479,0.232,0.479,0.5
	v6.441c0,0.355,0.265,0.645,0.59,0.645s0.59-0.29,0.59-0.645v-6.431c0-0.276,0.224-0.5,0.5-0.5h5.142c0.276,0,0.5,0.224,0.5,0.5
	v6.485c0,0.326,0.264,0.59,0.589,0.59c0.325,0,0.589-0.265,0.589-0.59v-6.501c0-0.263,0.203-0.48,0.465-0.499
	c0.694-0.049,1.366-0.272,1.941-0.647C36.946,28.625,37.042,28.598,37.137,28.598z"/>
</svg>
