<?xml version="1.0" encoding="utf-8"?>
<!-- Generator: Adobe Illustrator 16.0.0, SVG Export Plug-In . SVG Version: 6.00 Build 0)  -->
<svg version="1.2" baseProfile="tiny" id="Layer_2" xmlns="http://www.w3.org/2000/svg" xmlns:xlink="http://www.w3.org/1999/xlink"
	 x="0px" y="0px" width="57px" height="49px" viewBox="0 0 57 49" xml:space="preserve">
<path fill="#BCBEC0" d="M42.408,42.979c-1.112,0-2.017-0.905-2.017-2.017v-9.208c-0.639,0.307-1.326,0.513-2.033,0.61v8.599
	c0,1.112-0.904,2.017-2.017,2.017c-1.111,0-2.016-0.905-2.016-2.017v-8.528h-6.157v8.452c0,1.154-0.904,2.093-2.017,2.093
	c-1.113,0-2.017-0.939-2.017-2.093v-8.503c-0.726-0.081-1.435-0.277-2.096-0.58v9.083c0,1.154-0.905,2.093-2.017,2.093
	c-1.111,0-2.016-0.939-2.016-2.093V25.431h-0.485c-3.766,0-6.83-3.064-6.83-6.831c0-0.242,0.014-0.481,0.038-0.717l-0.002-7.466
	c0-0.276,0.224-0.5,0.5-0.5c1.686,0,3.181,0.871,3.987,2.257c0.741-0.268,1.515-0.403,2.308-0.403h3.897
	c0.801,0,1.584,0.139,2.334,0.414c0.805-1.393,2.296-2.269,3.921-2.269c0.276,0,0.574,0.224,0.574,0.5v8.068
	c0,0.019-0.001,0.037-0.003,0.054l0.003,0.061c0,0.023,0,0.046,0,0.07h9.168c1.037,0,2.05,0.232,2.976,0.678V8.036
	c0-1.111,0.904-2.017,2.017-2.017s2.017,0.905,2.017,2.017v32.925C44.424,42.074,43.52,42.979,42.408,42.979z M40.891,30.4
	c0.082,0,0.164,0.02,0.238,0.06c0.161,0.088,0.262,0.257,0.262,0.44v10.061c0,0.561,0.456,1.017,1.017,1.017
	s1.017-0.456,1.017-1.017V8.036c0-0.561-0.456-1.017-1.017-1.017s-1.017,0.456-1.017,1.017v12.167c0,0.184-0.101,0.352-0.262,0.439
	c-0.161,0.088-0.357,0.081-0.511-0.02c-0.957-0.624-2.064-0.952-3.203-0.952h-9.696c-0.14,0-0.274-0.06-0.369-0.163
	c-0.094-0.103-0.142-0.242-0.129-0.382c0.016-0.173,0.026-0.347,0.026-0.525c0-0.037,0.004-0.076,0.012-0.115h-0.012V10.95
	c-1.25,0.165-2.299,0.942-2.801,2.074c-0.054,0.121-0.154,0.216-0.278,0.264c-0.124,0.047-0.262,0.044-0.383-0.01
	c-0.753-0.335-1.549-0.505-2.367-0.505h-3.897c-0.81,0-1.598,0.166-2.342,0.493c-0.252,0.11-0.546-0.001-0.658-0.253
	c-0.511-1.14-1.58-1.919-2.794-2.068v6.991c-0.023,0.253-0.035,0.458-0.035,0.666c0,3.215,2.615,5.831,5.83,5.831h1.012
	c0.147,0,0.288,0.064,0.382,0.177s0.136,0.262,0.11,0.407c-0.011,0.063-0.02,0.127-0.02,0.193v15.677
	c0,0.603,0.456,1.093,1.016,1.093c0.561,0,1.017-0.49,1.017-1.093v-9.918c0-0.182,0.098-0.348,0.257-0.437
	c0.158-0.088,0.353-0.083,0.507,0.013c0.855,0.532,1.842,0.835,2.853,0.876c0.268,0.011,0.479,0.231,0.479,0.5v8.965
	c0,0.603,0.456,1.093,1.017,1.093s1.017-0.49,1.017-1.093v-8.952c0-0.276,0.224-0.5,0.5-0.5h7.157c0.276,0,0.5,0.224,0.5,0.5v9.028
	c0,0.561,0.456,1.017,1.016,1.017c0.561,0,1.017-0.456,1.017-1.017v-9.05c0-0.263,0.203-0.48,0.466-0.498
	c0.999-0.069,1.965-0.392,2.794-0.933C40.701,30.427,40.796,30.4,40.891,30.4z"/>
</svg>
