<?xml version="1.0" encoding="utf-8"?>
<!-- Generator: Adobe Illustrator 16.0.0, SVG Export Plug-In . SVG Version: 6.00 Build 0)  -->
<svg version="1.2" baseProfile="tiny" id="Layer_2" xmlns="http://www.w3.org/2000/svg" xmlns:xlink="http://www.w3.org/1999/xlink"
	 x="0px" y="0px" width="57px" height="49px" viewBox="0 0 57 49" xml:space="preserve">
<path fill="#333333" d="M50.995,45.354c-1.562,0-2.834-1.271-2.834-2.834v-9.713c-1.094,0.548-2.286,0.903-3.507,1.045v8.668
	c0,1.563-1.272,2.834-2.835,2.834c-1.562,0-2.833-1.271-2.833-2.834v-8.594h-6.218v8.594c0,1.563-1.271,2.834-2.834,2.834
	c-1.563,0-2.835-1.271-2.835-2.834v-8.708c-1.226-0.18-2.418-0.581-3.508-1.175v9.883c0,1.563-1.271,2.834-2.833,2.834
	c-1.563,0-2.835-1.271-2.835-2.834V23.847c0-0.129,0.009-0.257,0.027-0.385H8.278c-3.381,0-6.132-2.751-6.132-6.133
	c0-0.479,0.006-1.423,0.012-2.272c0.005-0.696,0.009-1.33,0.009-1.593c0-1.294,1.456-2.299,2.708-2.299l5.189,0.03
	c1.34-2.162,3.653-3.556,6.18-3.733l0.149-4.479c0.005-0.161,0.087-0.309,0.221-0.399c0.133-0.089,0.303-0.109,0.453-0.053
	c6.647,2.474,8.905,3.827,13.674,10.272h12.687c1.585,0,3.15,0.358,4.572,1.041V7.025c0-1.607,1.308-2.915,2.915-2.915
	c1.608,0,2.916,1.308,2.916,2.915c0.007,0.637,0.161,15.735,0.161,16.34c0,0.604-0.154,18.402-0.161,19.16
	C53.83,44.084,52.559,45.354,50.995,45.354z M48.661,31.46c0.084,0,0.169,0.022,0.245,0.064c0.157,0.089,0.255,0.255,0.255,0.436
	v10.561c0,1.012,0.823,1.834,1.834,1.834c1.012,0,1.835-0.822,1.835-1.834c0.001-0.19,0.161-18.555,0.161-19.155
	S52.832,7.188,52.83,7.031c0-1.062-0.859-1.92-1.916-1.92C49.859,5.11,49,5.969,49,7.025v7.651c0,0.178-0.096,0.344-0.251,0.434
	c-0.155,0.089-0.346,0.088-0.501-0.002c-1.459-0.853-3.126-1.304-4.819-1.304H30.489c-0.159,0-0.309-0.076-0.402-0.204
	c-4.585-6.229-6.63-7.586-12.717-9.887L17.229,7.96c-0.009,0.268-0.228,0.481-0.496,0.483c-2.455,0.021-4.734,1.362-5.951,3.501
	c-0.089,0.157-0.239,0.257-0.438,0.252l-5.473-0.031c-0.743,0-1.705,0.631-1.705,1.299c0,0.266-0.004,0.9-0.009,1.598
	c-0.006,0.849-0.012,1.789-0.012,2.267c0,2.83,2.302,5.133,5.132,5.133h10.316c0.276,0,0.5,0.223,0.5,0.5
	c0,0.064-0.013,0.138-0.036,0.197c-0.09,0.224-0.136,0.456-0.136,0.688v18.673c0,1.012,0.824,1.834,1.835,1.834
	c1.011,0,1.833-0.822,1.833-1.834V31.754c0-0.185,0.102-0.354,0.264-0.441c0.162-0.087,0.359-0.078,0.513,0.024
	c1.28,0.849,2.761,1.381,4.283,1.538c0.255,0.026,0.449,0.241,0.449,0.498v9.148c0,1.012,0.823,1.834,1.835,1.834
	c1.011,0,1.834-0.822,1.834-1.834v-9.094c0-0.276,0.224-0.5,0.5-0.5h7.218c0.276,0,0.5,0.224,0.5,0.5v9.094
	c0,1.012,0.822,1.834,1.833,1.834c1.012,0,1.835-0.822,1.835-1.834v-9.123c0-0.262,0.203-0.48,0.464-0.499
	c1.514-0.109,2.995-0.581,4.282-1.366C48.48,31.484,48.571,31.46,48.661,31.46z"/>
</svg>
